<?xml version="1.0" encoding="UTF-8" standalone="no"?>
<!-- Generator: Adobe Illustrator 19.0.0, SVG Export Plug-In . SVG Version: 6.00 Build 0)  -->

<svg
   version="1.1"
   id="Capa_1"
   x="0px"
   y="0px"
   viewBox="0 0 1240 600"
   xml:space="preserve"
   sodipodi:docname="logo_wide.svg"
   width="1240"
   height="600"
   inkscape:export-filename="logo.png"
   inkscape:export-xdpi="48"
   inkscape:export-ydpi="48"
   inkscape:version="1.2.2 (732a01da63, 2022-12-09)"
   xmlns:inkscape="http://www.inkscape.org/namespaces/inkscape"
   xmlns:sodipodi="http://sodipodi.sourceforge.net/DTD/sodipodi-0.dtd"
   xmlns="http://www.w3.org/2000/svg"
   xmlns:svg="http://www.w3.org/2000/svg"><defs
   id="defs170" /><sodipodi:namedview
   id="namedview168"
   pagecolor="#ffffff"
   bordercolor="#000000"
   borderopacity="0.25"
   inkscape:showpageshadow="2"
   inkscape:pageopacity="0.0"
   inkscape:pagecheckerboard="0"
   inkscape:deskcolor="#d1d1d1"
   showgrid="false"
   inkscape:zoom="0.50930032"
   inkscape:cx="-20.616519"
   inkscape:cy="195.36606"
   inkscape:window-width="2057"
   inkscape:window-height="1158"
   inkscape:window-x="116"
   inkscape:window-y="153"
   inkscape:window-maximized="0"
   inkscape:current-layer="Capa_1" />
<path
   style="fill:#e0e4e8;stroke-width:1.19153"
   d="m 519.23025,399.37515 c -91.14307,-90.93733 -91.14307,-239.06308 0,-330.000414 91.14307,-90.937331 239.60395,-90.937331 330.74702,0 91.14307,90.937334 91.14307,239.063084 0,330.000414 -91.14307,90.93733 -239.60395,90.93733 -330.74702,0 z"
   id="path87" />
<path
   style="fill:#fbbd5e;stroke-width:1.19153"
   d="M 608.49453,356.24996 563.39299,311.25023 347.2804,492.18703 c -25.37014,21.56259 -26.30894,59.06296 -3.75876,82.5001 23.49016,23.43714 61.07537,21.56259 82.68675,-3.75028 z"
   id="path89" />
<g
   id="g99"
   transform="matrix(1.1928784,0,0,1.1901857,317.89026,0)">
	<path
   style="fill:#183651"
   d="m 55.358,504.123 v 0 c -14.966,0 -28.357,-5.514 -38.597,-15.754 -22.843,-22.843 -21.268,-59.865 3.151,-81.132 L 200.294,255.212 c 3.151,-2.363 7.877,-2.363 10.24,0.788 l 37.809,37.809 c 3.151,3.151 3.151,7.877 0.788,10.24 L 97.105,484.431 c -10.24,12.603 -25.994,19.692 -41.747,19.692 z M 205.019,271.754 30.151,419.052 C 12.034,434.018 11.246,460.8 27,477.341 c 16.542,16.542 43.323,14.966 57.502,-2.363 L 232.588,299.323 Z"
   id="path91" />
	
		<rect
   x="126.195"
   y="362.11401"
   transform="matrix(-0.7071,-0.7071,0.7071,-0.7071,-32.7485,726.4169)"
   style="fill:#183651"
   width="15.754"
   height="15.754"
   id="rect93" />
	
		<rect
   x="89.152"
   y="399.065"
   transform="matrix(-0.7071,-0.7071,0.7071,-0.7071,-122.1131,763.3022)"
   style="fill:#183651"
   width="15.754"
   height="15.754"
   id="rect95" />
	
		<rect
   x="52.658001"
   y="436.57199"
   transform="matrix(-0.7071,-0.7071,0.7071,-0.7071,-210.9342,801.5265)"
   style="fill:#183651"
   width="15.754"
   height="15.754"
   id="rect97" />
</g>
<path
   style="fill:#ffffff;stroke-width:1.19153"
   d="m 636.68344,186.5628 v -48.75 l -36.64522,-4.68696 c -2.81877,-12.1875 -7.51752,-22.50046 -14.09386,-32.81223 L 608.49573,71.251659 573.72809,36.562506 544.60038,59.062967 C 534.26409,52.500283 522.98901,48.750007 511.71392,45.000922 L 507.01636,8.4384168 h -48.8603 L 454.3973,45.938789 c -12.21507,2.812409 -22.55136,7.50055 -32.88646,14.062044 l -29.1289,-23.438327 -34.76644,34.687963 22.55136,29.061951 c -6.57753,10.31296 -10.33629,21.5626 -14.09386,32.81223 l -36.64522,4.68696 v 48.75 l 36.64522,4.68695 c 2.81878,12.18751 7.51752,22.50047 14.09386,32.81223 l -22.55136,29.06196 34.76644,34.68796 29.1277,-22.50046 c 10.3363,6.56269 21.61138,10.31296 32.88647,14.06205 l 4.69756,36.5625 h 48.8603 l 4.69755,-36.5625 c 12.21508,-2.81241 22.55137,-7.50055 32.88647,-14.06205 l 29.1277,22.50046 34.76645,-34.68796 -22.55137,-29.06196 c 6.57753,-10.31295 10.33629,-21.56259 14.09386,-32.81223 z"
   id="path101" />
<path
   style="fill:#183651;stroke-width:1.19153"
   d="m 507.95516,324.3756 h -48.8603 c -4.69756,0 -8.45632,-3.75028 -9.39631,-8.43723 l -3.75876,-29.99982 c -8.45631,-2.81241 -15.97383,-5.62482 -23.49016,-9.37509 l -24.43015,18.75018 c -3.75876,2.81241 -9.3963,2.81241 -12.21507,-0.93786 l -34.76645,-34.68797 c -3.75876,-3.75027 -3.75876,-8.43722 -0.93998,-12.1875 l 18.7926,-23.43713 c -3.75876,-7.50056 -7.51752,-15.93778 -9.3963,-23.43714 l -30.06769,-3.75028 c -4.69756,-0.93786 -8.45632,-4.68695 -8.45632,-9.37509 v -48.75001 c 0,-4.68695 3.75876,-8.43722 8.45632,-9.37509 l 30.06769,-3.75028 c 2.81877,-8.43722 5.63754,-15.93777 9.3963,-23.43713 L 350.09917,78.749829 C 347.2804,73.125011 348.22039,68.43687 351.03916,64.687785 L 385.8056,29.999821 c 3.75876,-2.812408 8.45631,-3.750275 12.21507,-0.937866 l 23.49017,18.750186 c 7.51752,-3.750275 15.97383,-7.50055 23.49016,-9.375093 L 448.75976,8.4372266 C 449.69855,3.7502752 453.45731,0 458.15487,0 h 48.8603 c 4.69756,0 8.45632,3.7502752 9.3963,8.4372266 l 3.75876,29.9998214 c 8.45632,2.812409 15.97384,5.624818 23.49017,9.375093 l 23.49016,-18.750186 c 3.75876,-2.812409 9.3963,-2.812409 12.21507,0.937866 l 34.76645,34.687964 c 3.75876,3.750275 3.75876,8.437226 0.93998,12.187501 l -18.7926,23.437134 c 3.75876,7.50055 7.51752,15.93778 9.3963,23.43714 l 30.0677,3.75028 c 4.69755,0.93786 8.45631,4.68695 8.45631,9.37509 v 48.75001 c 0,4.68695 -3.75876,8.43722 -8.45631,9.37509 l -30.0677,3.75027 c -2.81877,8.43723 -5.63754,15.93778 -9.3963,23.43714 l 18.7926,23.43714 c 2.81878,3.75027 2.81878,9.37509 -0.93998,12.1875 l -34.76645,34.68796 c -3.75876,3.75028 -8.45631,3.75028 -12.21507,0.93787 L 543.6604,274.68773 c -7.51752,3.75027 -15.97384,7.50055 -23.49017,9.37509 l -3.75876,29.99982 c 0.93999,7.49936 -3.75876,10.31296 -8.45631,10.31296 z m -40.40399,-18.75019 h 32.88647 l 3.75876,-28.12528 c 0,-3.75027 2.81877,-6.56268 6.57753,-7.50055 10.33629,-2.81241 20.67139,-6.56268 31.00768,-12.1875 3.75876,-1.87454 7.51752,-1.87454 10.33629,0.93787 l 22.55137,17.81232 23.49016,-23.43714 -18.7926,-23.43714 c -2.81877,-2.81241 -2.81877,-7.50055 -0.93999,-10.31296 5.63754,-9.37509 10.33629,-19.68805 12.21507,-30.93768 0.93999,-3.75028 3.75876,-6.56269 7.51752,-6.56269 l 28.18891,-3.75027 v -32.81223 l -28.18891,-3.75028 c -3.75876,0 -6.57753,-2.81241 -7.51752,-6.56268 -2.81877,-10.31296 -6.57753,-20.62473 -12.21507,-30.93769 -1.87878,-3.75028 -1.87878,-7.500552 0.93999,-10.312961 l 17.85262,-22.500461 -23.49017,-23.437137 -22.55136,17.81232 c -2.81878,2.812408 -7.51752,2.812408 -10.3363,0.937866 -9.3963,-5.624818 -19.73259,-10.312959 -31.00768,-12.187502 -3.75876,-0.937866 -6.57753,-3.750275 -6.57753,-7.50055 l -3.75876,-28.125279 h -32.88646 l -3.75876,28.125279 c 0,3.750275 -2.81878,6.562684 -6.57754,7.50055 -10.33629,2.812409 -20.67139,7.50055 -30.06769,13.125368 -3.75876,1.874543 -7.51752,1.874543 -10.33629,-0.937866 l -22.55018,-16.873263 -22.55017,22.499271 17.85262,22.500461 c 2.81877,2.812409 2.81877,7.500554 0.93999,10.312964 -5.63755,9.37509 -10.3363,19.68805 -12.21508,30.93768 -0.93999,3.75028 -3.75876,6.56269 -7.51752,6.56269 l -28.18891,3.75027 v 32.81223 l 28.18891,3.75028 c 3.75876,0.93786 6.57753,2.81241 7.51752,6.56268 2.81877,10.31296 6.57753,20.62473 12.21508,30.93769 1.87878,3.75028 1.87878,7.50055 -0.93999,10.31296 l -17.85262,22.49808 23.49016,23.43714 22.55137,-17.81232 c 2.81877,-2.81241 7.51752,-2.81241 10.33629,-0.93787 9.3963,5.62482 19.7326,10.31296 31.00768,12.1875 3.75876,0.93787 6.57753,3.75028 6.57753,7.50055 z"
   id="path103" />
<ellipse
   style="fill:#f06151;stroke-width:1.19153"
   cx="483.52499"
   cy="162.18779"
   id="circle105"
   rx="85.505524"
   ry="85.312515" />
<ellipse
   style="fill:#ffffff;stroke-width:1.19153"
   cx="483.52499"
   cy="162.18779"
   id="circle107"
   rx="33.826454"
   ry="33.750095" />
<path
   style="fill:#183651;stroke-width:1.19153"
   d="m 483.52501,205.31299 v 0 c -24.43015,0 -43.22276,-19.68805 -43.22276,-43.12519 0,-24.375 19.7326,-43.12519 43.22276,-43.12519 23.49016,0 43.22276,19.68805 43.22276,43.12519 0,24.375 -18.79261,43.12519 -43.22276,43.12519 z m 0,-67.50019 c -14.09386,0 -24.43015,11.24963 -24.43015,24.375 0,14.06204 11.27509,24.375 24.43015,24.375 14.09386,0 24.43015,-11.24963 24.43015,-24.375 0.93999,-13.12537 -10.33629,-24.375 -24.43015,-24.375 z"
   id="path109" />
<path
   style="fill:#ffffff;stroke-width:1.19153"
   d="m 910.11265,459.3748 v -48.75001 l -36.64522,-4.68695 c -2.81877,-12.18751 -7.51752,-22.50046 -14.09386,-32.81223 l 22.55137,-29.06196 -34.76645,-34.68796 -29.1277,22.50046 C 807.6945,325.31347 796.41941,321.56319 785.14432,317.8141 l -4.69755,-36.5625 h -48.8603 l -4.69756,36.5625 c -12.21507,2.81241 -22.55137,7.50056 -32.88646,14.06205 l -29.12771,-22.50046 -34.76644,34.68796 22.55136,29.06196 c -6.57753,10.31296 -10.33629,21.56259 -14.09385,32.81223 l -36.64523,4.68695 v 48.75001 l 36.64523,4.68695 c 2.81877,12.1875 7.51752,22.50046 14.09385,32.81223 l -22.55136,29.06195 34.76644,34.68797 29.12771,-22.50047 c 10.33629,6.56269 21.61137,10.31296 32.88646,14.06205 l 4.69756,36.5625 h 48.8603 l 4.69755,-36.5625 c 12.21508,-2.81241 22.55137,-7.50055 32.88647,-14.06205 l 29.1277,22.50047 34.76645,-34.68797 -22.55137,-29.06195 c 6.57753,-10.31296 10.33629,-21.5626 14.09386,-32.81223 z"
   id="path111" />
<path
   style="fill:#183651;stroke-width:1.19153"
   d="m 781.38437,597.18759 h -48.8603 c -4.69756,0 -8.45632,-3.75027 -9.3963,-8.43723 l -3.75876,-29.99982 c -8.45632,-2.81241 -15.97384,-5.62481 -23.49017,-9.37509 l -23.49016,18.75019 c -3.75876,2.8124 -9.3963,2.8124 -12.21507,-0.93787 l -34.76645,-34.68796 c -3.75876,-3.75028 -3.75876,-8.43723 -0.93998,-12.18751 l 18.7926,-23.43713 c -3.75876,-7.50055 -7.51752,-15.93778 -9.3963,-23.43714 l -30.0677,-3.75028 c -4.69755,-0.93786 -8.45631,-4.68695 -8.45631,-9.37509 v -48.75001 c 0,-4.68695 3.75876,-8.43722 8.45631,-9.37509 l 30.0677,-3.75027 c 2.81877,-8.43723 5.63754,-15.93778 9.3963,-23.43714 l -18.7926,-23.43714 c -2.81878,-3.75027 -2.81878,-9.37509 0.93998,-12.1875 l 34.76645,-34.68796 c 3.75876,-3.75028 8.45631,-3.75028 12.21507,-0.93787 l 23.49016,18.75019 c 7.51752,-3.75028 15.97384,-7.50055 23.49017,-9.3751 l 3.75876,-29.99982 c 0.93998,-4.68695 4.69755,-8.43722 9.3963,-8.43722 h 48.8603 c 4.69756,0 8.45632,3.75027 9.3963,8.43722 l 3.75876,29.99982 c 8.45632,2.81241 15.97384,5.62482 23.49017,9.3751 l 23.49016,-18.75019 c 3.75876,-2.81241 9.3963,-2.81241 12.21507,0.93787 l 34.76645,34.68796 c 3.75876,3.75027 3.75876,8.43723 0.93998,12.1875 l -18.7926,23.43714 c 3.75876,7.50055 7.51752,15.93778 9.3963,23.43714 l 30.06769,3.75027 c 4.69756,0.93787 8.45632,4.68695 8.45632,9.37509 v 48.75001 c 0,4.68695 -3.75876,8.43723 -8.45632,9.37509 l -30.06769,3.75028 c -2.81877,8.43723 -5.63754,15.93778 -9.3963,23.43714 l 18.7926,23.43713 c 2.81878,3.75028 2.81878,9.3751 -0.93998,12.18751 l -33.82646,34.68796 c -3.75876,3.75027 -8.45631,3.75027 -12.21507,0.93787 l -23.49017,-18.75019 c -7.51752,3.75028 -15.97383,7.50055 -23.49016,9.37509 l -3.75876,29.99982 c -1.87878,4.68696 -5.63754,8.43723 -10.33629,8.43723 z m -41.34278,-18.75018 h 32.88647 l 3.75876,-28.12528 c 0.93998,-3.75028 2.81877,-6.56269 6.57753,-7.50055 10.33629,-2.81241 20.67139,-6.56269 31.00768,-12.18751 3.75876,-1.87454 7.51752,-1.87454 10.33629,0.93787 l 22.55137,17.81232 23.49016,-23.43714 -17.85262,-22.50046 c -2.81877,-2.81241 -2.81877,-7.50055 -0.93999,-10.31296 5.63755,-9.37509 10.33629,-19.68805 12.21508,-30.93769 0.93999,-3.75027 3.75876,-6.56268 7.51752,-6.56268 l 28.18891,-3.75028 v -32.81223 l -28.18891,-3.75027 c -3.75876,0 -6.57753,-2.81241 -7.51752,-6.56268 -2.81877,-10.31296 -6.57753,-20.62473 -12.21508,-30.93769 -1.87878,-3.75028 -1.87878,-7.50055 0.93999,-10.31296 l 17.85262,-22.50046 -23.49016,-23.43714 -22.55137,17.81232 c -2.81877,2.81241 -7.51752,2.81241 -10.33629,0.93787 -9.3963,-5.62482 -19.7326,-10.31296 -31.00768,-12.18751 -3.75876,-0.93786 -6.57753,-3.75027 -6.57753,-7.50055 l -3.75876,-28.12528 h -32.88647 l -3.75876,28.12528 c -0.93999,3.75028 -2.81877,6.56269 -6.57753,7.50055 -10.33629,2.81241 -20.67139,6.56269 -31.00768,12.18751 -3.75876,1.87454 -7.51752,1.87454 -10.3363,-0.93787 l -22.55136,-17.81232 -23.49017,23.43714 17.85262,22.50046 c 2.81877,2.81241 2.81877,7.50055 0.93999,10.31296 -5.63754,9.37509 -10.33629,19.68805 -12.21507,30.93769 -0.93999,3.75027 -3.75876,6.56268 -7.51752,6.56268 l -28.18891,3.75027 v 32.81223 l 28.18891,3.75028 c 3.75876,0 6.57753,2.81241 7.51752,6.56268 2.81877,10.31296 6.57753,20.62473 12.21507,29.99983 1.87878,3.75027 1.87878,7.50055 -0.93999,10.31295 l -17.85262,22.50047 23.49017,23.43713 22.55136,-17.81232 c 2.81878,-2.8124 7.51752,-2.8124 10.3363,-0.93786 9.3963,5.62482 19.73259,10.31296 31.00768,12.1875 3.75876,0.93787 6.57753,3.75027 6.57753,7.50055 z"
   id="path113" />
<ellipse
   style="fill:#f06151;stroke-width:1.19153"
   cx="756.95428"
   cy="434.99982"
   id="circle115"
   rx="85.505524"
   ry="85.312515" />
<ellipse
   style="fill:#ffffff;stroke-width:1.19153"
   cx="756.95428"
   cy="434.99982"
   id="circle117"
   rx="33.826454"
   ry="33.750095" />
<path
   style="fill:#183651;stroke-width:1.19153"
   d="m 756.95422,478.12498 c -24.43015,0 -43.22276,-19.68805 -43.22276,-43.12519 0,-24.375 19.7326,-43.12519 43.22276,-43.12519 24.43015,0 43.22276,19.68805 43.22276,43.12519 0,23.43833 -19.7314,43.12519 -43.22276,43.12519 z m 0,-68.43687 c -14.09386,0 -24.43015,11.24964 -24.43015,24.37501 0,13.12536 11.27509,24.375 24.43015,24.375 13.15506,0 24.43015,-11.24964 24.43015,-24.375 0,-13.12537 -11.27509,-24.37501 -24.43015,-24.37501 z"
   id="path119" />
<ellipse
   style="fill:#2ea0da;stroke-width:1.19153"
   cx="684.60376"
   cy="234.37495"
   id="circle121"
   rx="192.62244"
   ry="192.18762" />
<path
   style="fill:#183651;stroke-width:1.19153"
   d="m 684.60376,435.93766 c -53.55786,0 -104.29814,-20.62473 -142.82215,-59.06297 -38.52401,-38.43824 -59.19659,-89.06279 -59.19659,-142.49975 0,-53.43695 20.67139,-104.06269 59.19659,-142.499743 38.52521,-38.437048 89.26429,-59.062967 142.82215,-59.062967 53.55785,0 104.29813,20.624729 142.82214,59.062967 38.52401,38.438243 59.19659,89.062793 59.19659,142.499743 0,53.43696 -20.67139,104.0627 -59.19659,142.49975 -38.5252,38.43705 -89.26309,59.06297 -142.82214,59.06297 z m 0,-384.375244 c -48.8603,0 -94.90183,18.750186 -129.66828,53.436964 -34.76644,34.68677 -53.55785,80.62556 -53.55785,129.37556 0,48.75001 18.7926,94.68761 53.55785,129.37557 34.76525,34.68797 80.80798,53.43696 129.66828,53.43696 48.8603,0 94.90183,-18.75018 129.66827,-53.43696 34.76644,-34.68677 53.55786,-80.62556 53.55786,-129.37557 0,-48.75 -18.79261,-94.6876 -53.55786,-129.37556 C 779.50678,70.311412 733.46406,51.562416 684.60376,51.562416 Z"
   id="path123" />
<path
   style="fill:#ffffff;stroke-width:1.19153"
   d="m 577.48685,341.25005 c -59.19659,-59.06296 -59.19659,-154.68725 0,-213.75021 59.19659,-59.06297 155.03722,-59.06297 214.23381,0 59.19659,59.06296 59.19659,154.68725 0,213.75021 -59.19659,59.06297 -155.03722,59.06297 -214.23381,0 z"
   id="path125" />

<g
   id="g137">
</g>
<g
   id="g139">
</g>
<g
   id="g141">
</g>
<g
   id="g143">
</g>
<g
   id="g145">
</g>
<g
   id="g147">
</g>
<g
   id="g149">
</g>
<g
   id="g151">
</g>
<g
   id="g153">
</g>
<g
   id="g155">
</g>
<g
   id="g157">
</g>
<g
   id="g159">
</g>
<g
   id="g161">
</g>
<g
   id="g163">
</g>
<g
   id="g165">
</g>
<text
   xml:space="preserve"
   style="font-style:normal;font-variant:normal;font-weight:normal;font-stretch:normal;font-size:38.129px;font-family:'Segoe UI';-inkscape-font-specification:'Segoe UI';text-align:center;text-anchor:middle;fill:#000000;fill-opacity:1;stroke:#000000;stroke-width:2.01727;stroke-linecap:round;stroke-linejoin:round"
   x="682.06952"
   y="211.33165"
   id="text553"
   transform="scale(1.0011306,0.99887068)"><tspan
     sodipodi:role="line"
     id="tspan551"
     x="682.06952"
     y="211.33165"
     style="stroke-width:2.01727">Windows</tspan><tspan
     sodipodi:role="line"
     x="682.06952"
     y="258.99289"
     id="tspan605"
     style="stroke-width:2.01727">Background Task</tspan></text></svg>
